<svg width="506" height="1023" viewBox="0 0 506 1023" fill="none" xmlns="http://www.w3.org/2000/svg">
<path d="M0 88.5C0 39.6228 39.6228 0 88.5 0L144.444 0C150.826 0 156 5.1736 156 11.5556V165.444C156 171.826 150.826 177 144.444 177H88.5C39.6228 177 0 137.377 0 88.5Z" fill="#2065A2"/>
<path d="M156 337.444C156 257.67 91.3302 193 11.5558 193C5.17383 193 0.00022843 198.174 0.000227872 204.556L0.000216293 337C0.000215714 343.627 5.3728 349 12.0002 349L144.445 349C150.827 349 156 343.826 156 337.444Z" fill="#2065A2"/>
<path d="M328 260.5C328 309.377 288.378 349 239.5 349H183.556C177.174 349 172 343.826 172 337.444V183.556C172 177.174 177.174 172 183.556 172H239.5C288.378 172 328 211.623 328 260.5Z" fill="#2065A2"/>
<path d="M172 11.5556C172 91.33 236.67 156 316.445 156C322.827 156 328 150.826 328 144.444L328 12C328 5.3726 322.628 1.31683e-05 316 1.25889e-05L183.556 1.01022e-06C177.174 4.52291e-07 172 5.1736 172 11.5556Z" fill="#2065A2"/>
<path d="M1.3638e-05 445.5C1.3638e-05 396.623 39.6228 357 88.5 357H144.444C150.826 357 156 362.174 156 368.556V522.444C156 528.826 150.826 534 144.444 534H88.5C39.6228 534 1.3638e-05 494.377 1.3638e-05 445.5Z" fill="#2065A2"/>
<path d="M11.5558 706C91.3303 706 156 641.33 156 561.556C156 555.174 150.827 550 144.445 550H12.0002C5.37283 550 0.000244141 555.373 0.000244141 562V694.444C0.000244141 700.826 5.17384 706 11.5558 706Z" fill="#2065A2"/>
<path d="M328 617.5C328 666.377 288.378 706 239.5 706H183.556C177.174 706 172 700.826 172 694.444V540.556C172 534.174 177.174 529 183.556 529H239.5C288.378 529 328 568.623 328 617.5Z" fill="#2065A2"/>
<path d="M183.556 513C263.33 513 328 448.33 328 368.556C328 362.174 322.827 357 316.445 357H184C177.373 357 172 362.373 172 369V501.444C172 507.826 177.174 513 183.556 513Z" fill="#2065A2"/>
<path d="M244.825 1022.26C290.761 1022.26 328 985.026 328 939.089V886.511C328 880.513 323.138 875.651 317.14 875.651H172.511C166.513 875.651 161.65 880.513 161.65 886.511V939.089C161.65 985.026 198.889 1022.26 244.825 1022.26Z" fill="#2065A2"/>
<path d="M10.8602 875.651C85.8345 875.651 146.613 936.429 146.613 1011.4C146.613 1017.4 141.751 1022.26 135.753 1022.26L12 1022.26C5.37259 1022.26 1.23476e-05 1016.89 1.17683e-05 1010.26L9.49432e-07 886.511C4.25075e-07 880.513 4.86229 875.651 10.8602 875.651Z" fill="#2065A2"/>
<path d="M83.1748 714C37.2386 714 0 751.239 0 797.175L0 849.753C0 855.751 4.8623 860.613 10.8602 860.613H155.489C161.487 860.613 166.35 855.751 166.35 849.753V797.175C166.35 751.239 129.111 714 83.1748 714Z" fill="#2065A2"/>
<path d="M317.14 860.614C242.165 860.614 181.387 799.835 181.387 724.861C181.387 718.863 186.249 714 192.247 714L316 714C322.627 714 328 719.373 328 726L328 849.753C328 855.751 323.138 860.614 317.14 860.614Z" fill="#2065A2"/>
<path d="M506 88.5C506 39.6228 466.377 0 417.5 0L361.556 0C355.174 0 350 5.1736 350 11.5556V165.444C350 171.826 355.174 177 361.556 177H417.5C466.377 177 506 137.377 506 88.5Z" fill="#2065A2"/>
<path d="M350 337.444C350 257.67 414.67 193 494.444 193C500.826 193 506 198.174 506 204.556L506 337C506 343.627 500.627 349 494 349L361.555 349C355.173 349 350 343.826 350 337.444Z" fill="#2065A2"/>
<path d="M506 445.5C506 396.623 466.377 357 417.5 357H361.556C355.174 357 350 362.174 350 368.556V522.444C350 528.826 355.174 534 361.556 534H417.5C466.377 534 506 494.377 506 445.5Z" fill="#2065A2"/>
<path d="M494.444 706C414.67 706 350 641.33 350 561.556C350 555.174 355.173 550 361.555 550H494C500.627 550 506 555.373 506 562V694.444C506 700.826 500.826 706 494.444 706Z" fill="#2065A2"/>
<path d="M422.825 714C468.761 714 506 751.239 506 797.175V849.753C506 855.751 501.138 860.613 495.14 860.613H350.511C344.513 860.613 339.65 855.751 339.65 849.753V797.175C339.65 751.239 376.889 714 422.825 714Z" fill="#2065A2"/>
<path d="M495.14 875.651C420.165 875.651 359.387 936.429 359.387 1011.4C359.387 1017.4 364.249 1022.26 370.247 1022.26L494 1022.26C500.627 1022.26 506 1016.89 506 1010.26L506 886.511C506 880.513 501.138 875.651 495.14 875.651Z" fill="#2065A2"/>
</svg>
