<svg width="361" height="144" viewBox="0 0 361 144" fill="none" xmlns="http://www.w3.org/2000/svg">
<path d="M0 46.3204C0 33.0952 10.7211 22.374 23.9464 22.374H39.0838C40.8106 22.374 42.2105 23.7739 42.2105 25.5007V67.14C42.2105 68.8669 40.8106 70.2667 39.0838 70.2667H23.9463C10.7211 70.2667 0 59.5456 0 46.3204Z" fill="#2065A2"/>
<path d="M42.2104 118.28C42.2104 96.6942 24.712 79.1958 3.12664 79.1958C1.39981 79.1958 -6.49722e-05 80.5957 -6.51232e-05 82.3225L-6.82562e-05 118.159C-6.84129e-05 119.953 1.45365 121.406 3.24689 121.406L39.0837 121.406C40.8106 121.406 42.2104 120.006 42.2104 118.28Z" fill="#2065A2"/>
<path d="M100.656 97.4599C100.656 110.685 89.9346 121.406 76.7094 121.406H61.5719C59.8451 121.406 58.4452 120.006 58.4452 118.28V76.6403C58.4452 74.9134 59.8451 73.5135 61.572 73.5135H76.7094C89.9346 73.5135 100.656 84.2347 100.656 97.4599Z" fill="#2065A2"/>
<path d="M58.4453 25.5007C58.4453 47.0861 75.9437 64.5845 97.5291 64.5845C99.256 64.5845 100.656 63.1846 100.656 61.4578L100.656 25.6209C100.656 23.8277 99.2021 22.374 97.4089 22.374L61.572 22.374C59.8452 22.374 58.4453 23.7738 58.4453 25.5007Z" fill="#2065A2"/>
<path d="M155.926 110.39C150.36 110.39 146.259 109.109 143.623 106.546C140.987 103.982 139.669 99.9914 139.669 94.5724V38.2215H151.312V93.6936C151.312 96.4031 151.898 98.2705 153.07 99.2957C154.241 100.321 156.036 100.834 158.452 100.834H166.8V110.39H155.926ZM130.771 61.5088V51.9522H166.8V61.5088H130.771ZM193.973 111.708C187.895 111.708 183.025 110.317 179.363 107.534C175.775 104.751 173.981 100.834 173.981 95.7807C173.981 90.7278 175.482 86.8099 178.484 84.0272C181.56 81.1712 186.283 79.1207 192.655 77.8758L212.756 74.0312C212.756 69.4909 211.694 66.1223 209.571 63.9254C207.447 61.6553 204.298 60.5202 200.124 60.5202C196.389 60.5202 193.46 61.3623 191.336 63.0466C189.213 64.6577 187.748 67.0743 186.943 70.2965L174.969 69.5275C176.068 63.6691 178.777 59.0556 183.098 55.687C187.492 52.3184 193.167 50.6341 200.124 50.6341C208.033 50.6341 214.038 52.7578 218.139 57.0051C222.313 61.1793 224.4 67.0743 224.4 74.6903V97.4283C224.4 98.8197 224.62 99.8083 225.059 100.394C225.572 100.907 226.377 101.163 227.476 101.163H229.563V110.39C229.197 110.463 228.611 110.537 227.805 110.61C227 110.683 226.157 110.72 225.279 110.72C222.789 110.72 220.629 110.317 218.798 109.511C217.04 108.706 215.722 107.388 214.843 105.557C213.965 103.653 213.525 101.126 213.525 97.9776L214.734 98.5268C214.148 101.09 212.866 103.36 210.889 105.337C208.985 107.314 206.532 108.889 203.529 110.061C200.6 111.159 197.415 111.708 193.973 111.708ZM195.84 102.481C199.355 102.481 202.358 101.822 204.847 100.504C207.337 99.1126 209.278 97.2087 210.669 94.792C212.061 92.3754 212.756 89.6293 212.756 86.5536V82.8189L195.62 86.1142C192.105 86.7733 189.615 87.8352 188.151 89.2998C186.759 90.6911 186.064 92.4853 186.064 94.6822C186.064 97.172 186.906 99.1126 188.59 100.504C190.348 101.822 192.764 102.481 195.84 102.481ZM262.472 128.185C257.858 128.185 253.794 127.489 250.279 126.098C246.764 124.707 243.871 122.729 241.601 120.166C239.331 117.677 237.793 114.747 236.988 111.379L249.071 110.61C249.876 113.026 251.268 114.93 253.245 116.322C255.295 117.786 258.371 118.519 262.472 118.519C267.305 118.519 271.003 117.493 273.566 115.443C276.202 113.393 277.521 110.28 277.521 106.106V97.648C276.129 100.65 273.896 103.03 270.82 104.788C267.744 106.546 264.303 107.424 260.495 107.424C255.588 107.424 251.231 106.216 247.423 103.799C243.615 101.383 240.649 98.0508 238.525 93.8034C236.402 89.5561 235.34 84.6496 235.34 79.0841C235.34 73.4454 236.365 68.5023 238.416 64.2549C240.539 60.0076 243.468 56.6756 247.203 54.259C251.011 51.8424 255.295 50.6341 260.055 50.6341C264.229 50.6341 267.891 51.5861 271.04 53.4901C274.262 55.3941 276.569 57.9571 277.96 61.1793V51.9522H289.164V105.777C289.164 110.61 288.066 114.674 285.869 117.969C283.745 121.338 280.67 123.865 276.642 125.549C272.687 127.306 267.964 128.185 262.472 128.185ZM262.362 97.5382C266.902 97.5382 270.527 95.8905 273.237 92.5951C276.019 89.2998 277.447 84.7595 277.521 78.9743C277.594 75.1663 277.008 71.9075 275.763 69.198C274.518 66.4152 272.724 64.2916 270.381 62.827C268.111 61.2891 265.438 60.5202 262.362 60.5202C257.602 60.5202 253.904 62.2045 251.268 65.5731C248.704 68.8685 247.423 73.3355 247.423 78.9743C247.423 84.6862 248.741 89.2265 251.377 92.5951C254.087 95.8905 257.748 97.5382 262.362 97.5382ZM328.671 111.708C322.959 111.708 318.016 110.463 313.842 107.974C309.741 105.484 306.555 101.932 304.285 97.3185C302.088 92.705 300.99 87.3225 300.99 81.1712C300.99 75.0198 302.088 69.674 304.285 65.1337C306.555 60.5202 309.741 56.9685 313.842 54.4787C317.943 51.9156 322.776 50.6341 328.341 50.6341C333.614 50.6341 338.264 51.879 342.292 54.3688C346.319 56.7854 349.432 60.3005 351.629 64.914C353.899 69.5275 355.034 75.0931 355.034 81.6106V84.5764H313.073C313.366 90.2884 314.867 94.5724 317.577 97.4283C320.359 100.284 324.094 101.712 328.781 101.712C332.223 101.712 335.079 100.907 337.349 99.2957C339.619 97.6847 341.193 95.5244 342.072 92.8148L354.155 93.5837C352.617 99.0028 349.578 103.397 345.038 106.765C340.571 110.061 335.115 111.708 328.671 111.708ZM313.073 75.7887H342.731C342.365 70.5894 340.864 66.7448 338.228 64.2549C335.664 61.7651 332.369 60.5202 328.341 60.5202C324.167 60.5202 320.725 61.8383 318.016 64.4746C315.38 67.0377 313.732 70.8091 313.073 75.7887Z" fill="#293141"/>
</svg>
