<svg width="211" height="83" viewBox="0 0 211 83" fill="none" xmlns="http://www.w3.org/2000/svg">
<path d="M0.638306 26.6569C0.638306 18.9798 6.86186 12.7562 14.539 12.7562H23.3262C24.3286 12.7562 25.1412 13.5688 25.1412 14.5713V38.7426C25.1412 39.745 24.3286 40.5576 23.3262 40.5576H14.539C6.86186 40.5576 0.638306 34.3341 0.638306 26.6569Z" fill="#2065A2"/>
<path d="M25.1412 68.4289C25.1412 55.8987 14.9835 45.741 2.45334 45.741C1.45093 45.741 0.638313 46.5536 0.638313 47.556L0.638311 68.359C0.638311 69.4 1.48218 70.2439 2.52315 70.2439L23.3262 70.2439C24.3286 70.2439 25.1412 69.4313 25.1412 68.4289Z" fill="#2065A2"/>
<path d="M59.0683 56.3432C59.0683 64.0203 52.8447 70.2439 45.1676 70.2439H36.3804C35.378 70.2439 34.5654 69.4313 34.5654 68.4289V44.2575C34.5654 43.2551 35.378 42.4425 36.3804 42.4425H45.1676C52.8447 42.4425 59.0683 48.6661 59.0683 56.3432Z" fill="#2065A2"/>
<path d="M34.5654 14.5713C34.5654 27.1014 44.7231 37.2592 57.2533 37.2592C58.2557 37.2592 59.0684 36.4465 59.0684 35.4441L59.0684 14.6411C59.0684 13.6001 58.2245 12.7562 57.1835 12.7562L36.3805 12.7562C35.378 12.7562 34.5654 13.5688 34.5654 14.5713Z" fill="#2065A2"/>
<path d="M91.152 64C87.9213 64 85.5407 63.2561 84.0104 61.7682C82.48 60.2804 81.7149 57.9636 81.7149 54.8179V22.1066H88.4739V54.3078C88.4739 55.8806 88.814 56.9646 89.4942 57.5598C90.1743 58.1549 91.2158 58.4525 92.6186 58.4525H97.4647V64H91.152ZM76.5499 35.6247V30.0772H97.4647V35.6247H76.5499ZM113.238 64.7652C109.71 64.7652 106.883 63.9575 104.757 62.3421C102.674 60.7267 101.633 58.4525 101.633 55.5193C101.633 52.5861 102.504 50.3118 104.247 48.6965C106.033 47.0386 108.775 45.8483 112.473 45.1257L124.142 42.8939C124.142 40.2583 123.525 38.3028 122.293 37.0275C121.06 35.7097 119.232 35.0508 116.809 35.0508C114.641 35.0508 112.94 35.5397 111.708 36.5174C110.475 37.4526 109.625 38.8555 109.157 40.7259L102.207 40.2795C102.844 36.8788 104.417 34.2006 106.925 32.2452C109.476 30.2897 112.77 29.312 116.809 29.312C121.4 29.312 124.886 30.5448 127.266 33.0104C129.689 35.4334 130.901 38.8555 130.901 43.2765V56.4758C130.901 57.2835 131.028 57.8573 131.283 58.1974C131.581 58.495 132.049 58.6438 132.686 58.6438H133.898V64C133.685 64.0425 133.345 64.085 132.878 64.1275C132.41 64.17 131.921 64.1913 131.411 64.1913C129.966 64.1913 128.712 63.9575 127.649 63.4899C126.629 63.0223 125.863 62.2571 125.353 61.1944C124.843 60.0891 124.588 58.6225 124.588 56.7946L125.29 57.1134C124.949 58.6013 124.206 59.9191 123.058 61.0668C121.953 62.2146 120.528 63.1285 118.786 63.8087C117.085 64.4464 115.236 64.7652 113.238 64.7652ZM114.322 59.4089C116.363 59.4089 118.105 59.0264 119.551 58.2612C120.996 57.4535 122.123 56.3482 122.93 54.9454C123.738 53.5426 124.142 51.9485 124.142 50.1631V47.9951L114.195 49.908C112.154 50.2906 110.709 50.907 109.859 51.7572C109.051 52.5649 108.647 53.6064 108.647 54.8816C108.647 56.327 109.136 57.4535 110.114 58.2612C111.134 59.0264 112.537 59.4089 114.322 59.4089ZM153.001 74.3299C150.323 74.3299 147.964 73.926 145.923 73.1184C143.883 72.3107 142.204 71.1629 140.886 69.6751C139.568 68.2297 138.675 66.5293 138.208 64.5739L145.222 64.1275C145.69 65.5304 146.497 66.6356 147.645 67.4433C148.835 68.2935 150.621 68.7186 153.001 68.7186C155.807 68.7186 157.954 68.1234 159.442 66.9332C160.972 65.7429 161.737 63.9362 161.737 61.5132V56.6033C160.929 58.3462 159.633 59.7278 157.847 60.748C156.062 61.7682 154.064 62.2784 151.854 62.2784C149.005 62.2784 146.476 61.5769 144.266 60.1741C142.055 58.7713 140.333 56.8371 139.101 54.3715C137.868 51.906 137.251 49.0578 137.251 45.8271C137.251 42.5538 137.847 39.6844 139.037 37.2188C140.27 34.7533 141.97 32.8191 144.138 31.4162C146.349 30.0134 148.835 29.312 151.598 29.312C154.022 29.312 156.147 29.8646 157.975 30.9699C159.845 32.0751 161.184 33.563 161.992 35.4334V30.0772H168.496V61.3219C168.496 64.1275 167.858 66.4868 166.583 68.3998C165.35 70.3552 163.565 71.8218 161.227 72.7995C158.931 73.8198 156.19 74.3299 153.001 74.3299ZM152.938 56.5395C155.573 56.5395 157.677 55.5831 159.25 53.6701C160.866 51.7572 161.695 49.1216 161.737 45.7633C161.78 43.5528 161.439 41.6611 160.717 40.0882C159.994 38.4729 158.953 37.2401 157.592 36.3899C156.275 35.4972 154.723 35.0508 152.938 35.0508C150.174 35.0508 148.028 36.0286 146.497 37.984C145.009 39.8969 144.266 42.49 144.266 45.7633C144.266 49.0791 145.031 51.7147 146.561 53.6701C148.134 55.5831 150.259 56.5395 152.938 56.5395ZM191.429 64.7652C188.114 64.7652 185.244 64.0425 182.821 62.5972C180.441 61.1518 178.592 59.0901 177.274 56.412C175.998 53.7339 175.361 50.6094 175.361 47.0386C175.361 43.4678 175.998 40.3646 177.274 37.7289C178.592 35.0508 180.441 32.9891 182.821 31.5438C185.202 30.0559 188.007 29.312 191.238 29.312C194.299 29.312 196.998 30.0347 199.336 31.48C201.674 32.8828 203.481 34.9233 204.756 37.6014C206.074 40.2795 206.733 43.5103 206.733 47.2937V49.0153H182.375C182.545 52.3311 183.416 54.8179 184.989 56.4758C186.605 58.1336 188.773 58.9626 191.493 58.9626C193.491 58.9626 195.149 58.495 196.467 57.5598C197.785 56.6246 198.699 55.3705 199.209 53.7977L206.223 54.244C205.33 57.3897 203.566 59.9403 200.93 61.8958C198.337 63.8087 195.17 64.7652 191.429 64.7652ZM182.375 43.9141H199.591C199.379 40.8959 198.507 38.6642 196.977 37.2188C195.489 35.7735 193.576 35.0508 191.238 35.0508C188.815 35.0508 186.817 35.816 185.244 37.3464C183.714 38.8342 182.757 41.0235 182.375 43.9141Z" fill="#293141"/>
</svg>
