<svg width="1157" height="459" viewBox="0 0 1157 459" fill="none" xmlns="http://www.w3.org/2000/svg">
<path d="M0 147.288C0 104.766 34.4703 70.296 76.9916 70.296H125.661C131.213 70.296 135.714 74.7969 135.714 80.3489V214.226C135.714 219.778 131.213 224.279 125.661 224.279H76.9916C34.4703 224.279 0 189.809 0 147.288V147.288Z" fill="#2065A2"/>
<path d="M135.714 378.651C135.714 309.25 79.4537 252.989 10.053 252.989V252.989C4.50098 252.989 0.000152194 257.49 0.000151709 263.042L0.000141636 378.264C0.000141132 384.03 4.67408 388.703 10.4397 388.703L125.661 388.703C131.213 388.703 135.714 384.203 135.714 378.651V378.651Z" fill="#2065A2"/>
<path d="M323.627 311.712C323.627 354.234 289.157 388.704 246.636 388.704H197.966C192.414 388.704 187.913 384.203 187.913 378.651V244.774C187.913 239.222 192.414 234.721 197.966 234.721H246.636C289.157 234.721 323.627 269.191 323.627 311.712V311.712Z" fill="#2065A2"/>
<path d="M187.913 80.3494C187.913 149.75 244.174 206.011 313.574 206.011V206.011C319.126 206.011 323.627 201.51 323.627 195.958L323.627 80.7361C323.627 74.9705 318.953 70.2966 313.188 70.2966L197.966 70.2965C192.414 70.2965 187.913 74.7974 187.913 80.3494V80.3494Z" fill="#2065A2"/>
<path d="M501.329 355C483.435 355 470.25 350.88 461.774 342.639C453.298 334.398 449.06 321.566 449.06 304.143V122.966H486.496V301.318C486.496 310.029 488.379 316.033 492.147 319.33C495.914 322.626 501.682 324.274 509.452 324.274H536.293V355H501.329ZM420.453 197.838V167.112H536.293V197.838H420.453ZM623.656 359.238C604.114 359.238 588.457 354.765 576.684 345.818C565.148 336.87 559.379 324.274 559.379 308.028C559.379 291.782 564.206 279.186 573.859 270.239C583.748 261.056 598.934 254.464 619.418 250.461L684.049 238.1C684.049 223.502 680.635 212.671 673.807 205.608C666.979 198.309 656.855 194.66 643.434 194.66C631.426 194.66 622.008 197.367 615.18 202.783C608.352 207.963 603.643 215.732 601.053 226.092L562.558 223.62C566.089 204.784 574.801 189.951 588.692 179.12C602.819 168.289 621.066 162.874 643.434 162.874C668.862 162.874 688.169 169.702 701.354 183.358C714.775 196.779 721.485 215.732 721.485 240.219V313.326C721.485 317.799 722.192 320.978 723.604 322.861C725.252 324.509 727.842 325.334 731.374 325.334H738.084V355C736.907 355.235 735.023 355.471 732.434 355.706C729.844 355.942 727.136 356.06 724.311 356.06C716.305 356.06 709.36 354.765 703.473 352.175C697.823 349.585 693.585 345.347 690.759 339.46C687.934 333.339 686.521 325.216 686.521 315.092L690.406 316.857C688.522 325.098 684.402 332.397 678.045 338.754C671.923 345.111 664.036 350.173 654.382 353.94C644.964 357.472 634.722 359.238 623.656 359.238ZM629.66 329.572C640.962 329.572 650.615 327.453 658.62 323.214C666.626 318.741 672.865 312.619 677.339 304.85C681.812 297.08 684.049 288.25 684.049 278.362V266.354L628.954 276.949C617.652 279.068 609.647 282.482 604.938 287.191C600.465 291.664 598.228 297.433 598.228 304.496C598.228 312.502 600.936 318.741 606.351 323.214C612.002 327.453 619.772 329.572 629.66 329.572ZM843.893 412.214C829.059 412.214 815.992 409.977 804.69 405.504C793.389 401.03 784.089 394.673 776.79 386.432C769.491 378.427 764.546 369.009 761.957 358.179L800.805 355.706C803.395 363.476 807.869 369.598 814.226 374.071C820.819 378.78 830.707 381.135 843.893 381.135C859.432 381.135 871.322 377.838 879.563 371.246C888.039 364.653 892.277 354.647 892.277 341.226V314.032C887.804 323.685 880.622 331.337 870.734 336.988C860.845 342.639 849.779 345.464 837.535 345.464C821.76 345.464 807.751 341.579 795.508 333.81C783.265 326.04 773.729 315.327 766.901 301.671C760.073 288.015 756.659 272.24 756.659 254.346C756.659 236.216 759.955 220.324 766.548 206.668C773.376 193.012 782.794 182.299 794.802 174.529C807.045 166.759 820.819 162.874 836.123 162.874C849.543 162.874 861.316 165.935 871.44 172.057C881.8 178.178 889.216 186.419 893.69 196.779V167.112H929.713V340.167C929.713 355.706 926.182 368.774 919.118 379.369C912.29 390.2 902.401 398.322 889.452 403.738C876.738 409.389 861.551 412.214 843.893 412.214ZM843.539 313.679C858.137 313.679 869.792 308.381 878.503 297.786C887.45 287.191 892.042 272.593 892.277 253.993C892.513 241.749 890.629 231.272 886.626 222.56C882.624 213.613 876.855 206.785 869.321 202.076C862.022 197.132 853.428 194.66 843.539 194.66C828.235 194.66 816.345 200.075 807.869 210.906C799.628 221.501 795.508 235.863 795.508 253.993C795.508 272.358 799.746 286.955 808.222 297.786C816.934 308.381 828.706 313.679 843.539 313.679ZM1056.73 359.238C1038.37 359.238 1022.48 355.235 1009.06 347.23C995.871 339.225 985.629 327.806 978.33 312.972C971.266 298.139 967.735 280.834 967.735 261.056C967.735 241.278 971.266 224.091 978.33 209.493C985.629 194.66 995.871 183.24 1009.06 175.235C1022.24 166.995 1037.78 162.874 1055.67 162.874C1072.63 162.874 1087.58 166.877 1100.53 174.882C1113.48 182.652 1123.48 193.953 1130.55 208.787C1137.85 223.62 1141.5 241.514 1141.5 262.469V272.004H1006.58C1007.53 290.369 1012.35 304.143 1021.06 313.326C1030.01 322.508 1042.02 327.099 1057.09 327.099C1068.15 327.099 1077.34 324.509 1084.63 319.33C1091.93 314.15 1097 307.204 1099.82 298.492L1138.67 300.965C1133.73 318.388 1123.95 332.515 1109.36 343.345C1094.99 353.94 1077.45 359.238 1056.73 359.238ZM1006.58 243.751H1101.94C1100.76 227.034 1095.94 214.673 1087.46 206.668C1079.22 198.662 1068.62 194.66 1055.67 194.66C1042.25 194.66 1031.19 198.898 1022.48 207.374C1014 215.615 1008.7 227.74 1006.58 243.751Z" fill="#E6E8E5"/>
</svg>
